<?xml version="1.0" encoding="utf-8"?>
<!-- Generator: Adobe Illustrator 24.1.2, SVG Export Plug-In . SVG Version: 6.00 Build 0)  -->
<svg version="1.1" id="Capa_1" xmlns="http://www.w3.org/2000/svg" xmlns:xlink="http://www.w3.org/1999/xlink" x="0px" y="0px"
	 viewBox="0 0 96 96" style="enable-background:new 0 0 96 96;" xml:space="preserve">
<style type="text/css">
	.st0{fill:#FFB03A;}
	.st1{fill:#31A1D6;}
	.st2{fill:none;stroke:#000000;stroke-width:0.9692;stroke-miterlimit:10;}
</style>
<g>
	<g>
		<path class="st0" d="M24.7,79.7V64.4c0-11.1,9-20.1,20.1-20.1h6.4c11.1,0,20.1,9,20.1,20.1v15.3H24.7z"/>
		<g>
			<path d="M51.2,44.8c10.8,0,19.6,8.8,19.6,19.6v14.9H25.2V64.4c0-10.8,8.8-19.6,19.6-19.6H51.2 M51.2,43.8h-6.4
				c-11.4,0-20.6,9.2-20.6,20.6v15.8h47.6V64.4C71.8,53,62.6,43.8,51.2,43.8L51.2,43.8z"/>
		</g>
	</g>
	<g>
		<path class="st0" d="M47.7,52.8c-9.6,0-17.4-7.8-17.4-17.4s7.8-17.4,17.4-17.4c9.6,0,17.4,7.8,17.4,17.4S57.3,52.8,47.7,52.8z"/>
		<g>
			<path d="M47.7,18.4c9.4,0,17,7.6,17,17s-7.6,17-17,17s-17-7.6-17-17S38.4,18.4,47.7,18.4 M47.7,17.5c-9.9,0-17.9,8-17.9,17.9
				s8,17.9,17.9,17.9s17.9-8,17.9-17.9S57.6,17.5,47.7,17.5L47.7,17.5z"/>
		</g>
	</g>
	<g>
		<path class="st1" d="M29.7,40.8c-1.7,0-3.1-2-3.1-4.5s1.4-4.5,3.1-4.5c0.2,0,0.4,0,0.6,0.1c-0.3,1.2-0.5,2.4-0.5,3.6
			c0,1.7,0.3,3.4,0.9,5.1C30.5,40.7,30.1,40.8,29.7,40.8z"/>
		<g>
			<path d="M29.7,32c0.1,0,0.2,0,0.3,0c-0.3,1.1-0.4,2.3-0.4,3.4c0,1.7,0.3,3.3,0.9,5c-0.3,0.1-0.5,0.2-0.8,0.2
				c-1.6,0-2.8-1.9-2.8-4.3S28.2,32,29.7,32 M29.7,31.5c-1.8,0-3.3,2.1-3.3,4.8c0,2.6,1.5,4.8,3.3,4.8c0.5,0,1-0.2,1.4-0.4
				c-0.6-1.6-1-3.4-1-5.2c0-1.3,0.2-2.5,0.5-3.7C30.3,31.5,30,31.5,29.7,31.5L29.7,31.5z"/>
		</g>
	</g>
	<g>
		<path class="st1" d="M65.7,40.5c-0.4,0-0.7-0.1-1.1-0.3c0.6-1.6,0.9-3.4,0.9-5.1c0-1.2-0.2-2.4-0.5-3.6c0.2-0.1,0.4-0.1,0.6-0.1
			c1.7,0,3.1,2,3.1,4.5S67.4,40.5,65.7,40.5z"/>
		<g>
			<path d="M65.7,31.7c1.6,0,2.8,1.9,2.8,4.3s-1.3,4.3-2.8,4.3c-0.3,0-0.5-0.1-0.8-0.2c0.6-1.6,0.9-3.3,0.9-5c0-1.1-0.1-2.3-0.4-3.4
				C65.5,31.7,65.6,31.7,65.7,31.7 M65.7,31.2c-0.3,0-0.6,0.1-0.9,0.2c0.3,1.2,0.5,2.5,0.5,3.7c0,1.8-0.4,3.5-1,5.2
				c0.4,0.3,0.9,0.4,1.4,0.4c1.8,0,3.3-2.1,3.3-4.8C69,33.4,67.5,31.2,65.7,31.2L65.7,31.2z"/>
		</g>
	</g>
	<g>
		<path class="st2" d="M66.5,31.8c-1.6-9.1-9.4-16-18.8-16c-9.5,0-17.3,7-18.8,16.2"/>
	</g>
	<line class="st2" x1="66.5" y1="40.2" x2="66.5" y2="43.5"/>
	<line class="st2" x1="66.5" y1="43.5" x2="55.3" y2="45.2"/>
	<g>
		<path class="st1" d="M54.9,46.6c-0.8,0-1.6-0.5-1.6-1.2c-0.1-0.8,0.6-1.5,1.5-1.6c0.1,0,0.2,0,0.2,0c0.8,0,1.6,0.5,1.6,1.2
			c0.1,0.8-0.6,1.5-1.5,1.6C55.1,46.6,55,46.6,54.9,46.6z"/>
		<g>
			<path d="M55.1,44c0.7,0,1.3,0.4,1.4,1c0,0.3-0.1,0.6-0.3,0.9c-0.3,0.3-0.6,0.5-1,0.5c-0.1,0-0.1,0-0.2,0c-0.7,0-1.3-0.4-1.4-1
				c0-0.3,0.1-0.6,0.3-0.9c0.3-0.3,0.6-0.5,1-0.5C54.9,44,55,44,55.1,44 M55.1,43.5c-0.1,0-0.2,0-0.3,0c-1.1,0.1-1.9,1-1.8,1.9
				c0.1,0.8,0.9,1.5,1.9,1.5c0.1,0,0.2,0,0.3,0c1.1-0.1,1.9-1,1.8-1.9C56.9,44.1,56,43.5,55.1,43.5L55.1,43.5z"/>
		</g>
	</g>
	<path class="st2" d="M58.8,36.9c0-2.2-1.8-4-4-4c-2.2,0-4,1.8-4,4c0,0.1,0,0.1,0,0.2"/>
	<path class="st2" d="M44.8,37.1c0-0.1,0-0.1,0-0.2c0-2.2-1.8-4-4-4c-2.2,0-4,1.8-4,4"/>
</g>
</svg>
