<?xml version="1.0" encoding="utf-8"?>
<!-- Generator: Adobe Illustrator 24.1.2, SVG Export Plug-In . SVG Version: 6.00 Build 0)  -->
<svg version="1.1" id="Capa_1" xmlns="http://www.w3.org/2000/svg" xmlns:xlink="http://www.w3.org/1999/xlink" x="0px" y="0px"
	 viewBox="0 0 96 96" style="enable-background:new 0 0 96 96;" xml:space="preserve">
<style type="text/css">
	.st0{fill:#FFB03A;}
	.st1{fill:#FFFFFF;}
	.st2{fill:#31A1D6;}
	.st3{fill:none;stroke:#000000;stroke-width:0.8075;stroke-miterlimit:10;}
</style>
<g>
	<g>
		<path class="st0" d="M20.9,53.6c-0.5,0-0.9-0.4-0.9-0.9v-6.2c0-0.2,0.1-0.5,0.3-0.7l26.9-27.3c0.2-0.2,0.4-0.3,0.7-0.3
			c0.2,0,0.5,0.1,0.7,0.3l27.4,27.3c0.2,0.2,0.3,0.4,0.3,0.7v6.2c0,0.5-0.4,0.9-0.9,0.9H20.9z"/>
		<g>
			<path d="M47.8,18.6c0.1,0,0.3,0.1,0.4,0.2l27.4,27.3c0.1,0.1,0.2,0.2,0.2,0.4v6.2c0,0.3-0.2,0.5-0.5,0.5H20.9
				c-0.3,0-0.5-0.2-0.5-0.5v-6.2c0-0.1,0.1-0.3,0.2-0.4l26.9-27.3C47.5,18.7,47.6,18.6,47.8,18.6 M47.8,17.8c-0.3,0-0.7,0.1-1,0.4
				L19.9,45.5c-0.2,0.2-0.4,0.6-0.4,0.9v6.2c0,0.7,0.6,1.3,1.3,1.3h54.3c0.7,0,1.3-0.6,1.3-1.3v-6.2c0-0.4-0.1-0.7-0.4-0.9
				L48.7,18.2C48.4,17.9,48.1,17.8,47.8,17.8L47.8,17.8z"/>
		</g>
	</g>
	<g>
		<path class="st1" d="M30.4,59.2v-27c0-3.6,2.9-6.5,6.5-6.5h23.8c3.6,0,6.5,2.9,6.5,6.5v27H30.4z"/>
		<path d="M60.7,26.1c3.3,0,6.1,2.7,6.1,6.1v26.6H30.8V32.2c0-3.3,2.7-6.1,6.1-6.1H60.7 M60.7,25.3H36.9c-3.8,0-6.9,3.1-6.9,6.9
			v27.4h37.5V32.2C67.6,28.4,64.5,25.3,60.7,25.3L60.7,25.3z"/>
	</g>
	<g>
		<path class="st0" d="M25.6,77.8c-3.1,0-5.7-2.5-5.7-5.7V46.3c9.2,0.3,27.9,11.9,28,12l0.2,0.1l0.2-0.1c0.2-0.1,18.1-11.7,27.6-12
			v25.8c0,3.1-2.5,5.7-5.7,5.7H25.6z"/>
		<g>
			<path d="M75.7,46.7v25.4c0,2.9-2.4,5.2-5.2,5.2H25.6c-2.9,0-5.2-2.4-5.2-5.2V46.7c9.2,0.7,27.2,11.8,27.4,12l0.4,0.3l0.4-0.3
				C48.8,58.6,66.1,47.4,75.7,46.7 M76.5,45.9C66.8,45.9,48.2,58,48.2,58S28.8,45.9,19.5,45.9v26.2c0,3.3,2.7,6.1,6.1,6.1h44.8
				c3.3,0,6.1-2.7,6.1-6.1C76.5,63.4,76.5,54.7,76.5,45.9L76.5,45.9z"/>
		</g>
	</g>
	<g>
		<path class="st2" d="M35.4,41.3c-1.4,0-2.6-1.2-2.6-2.6V33c0-1.4,1.2-2.6,2.6-2.6h5.9c1.4,0,2.6,1.2,2.6,2.6v5.7
			c0,1.4-1.2,2.6-2.6,2.6H35.4z"/>
		<g>
			<path d="M41.2,30.6c1.3,0,2.4,1.1,2.4,2.4v5.7c0,1.3-1.1,2.4-2.4,2.4h-5.9C34,41.1,33,40,33,38.6V33c0-1.3,1.1-2.4,2.4-2.4H41.2
				 M41.2,30.2h-5.9c-1.6,0-2.8,1.3-2.8,2.8v5.7c0,1.6,1.3,2.8,2.8,2.8h5.9c1.6,0,2.8-1.3,2.8-2.8V33C44.1,31.4,42.8,30.2,41.2,30.2
				L41.2,30.2z"/>
		</g>
	</g>
	<g>
		<line class="st3" x1="45.7" y1="32" x2="64.8" y2="32"/>
	</g>
	<g>
		<line class="st3" x1="45.7" y1="36.2" x2="64.8" y2="36.2"/>
	</g>
	<g>
		<line class="st3" x1="45.7" y1="40.3" x2="64.8" y2="40.3"/>
	</g>
	<g>
		<line class="st3" x1="33.5" y1="44" x2="65.2" y2="44"/>
	</g>
	<g>
		<line class="st3" x1="33.5" y1="48.1" x2="65.2" y2="48.1"/>
	</g>
</g>
</svg>
