<?xml version="1.0" encoding="utf-8"?>
<!-- Generator: Adobe Illustrator 24.1.2, SVG Export Plug-In . SVG Version: 6.00 Build 0)  -->
<svg version="1.1" id="Capa_1" xmlns="http://www.w3.org/2000/svg" xmlns:xlink="http://www.w3.org/1999/xlink" x="0px" y="0px"
	 viewBox="0 0 96 96" style="enable-background:new 0 0 96 96;" xml:space="preserve">
<style type="text/css">
	.st0{fill:#FFB03A;}
	.st1{fill:#FFFFFF;}
	.st2{fill:none;stroke:#000000;stroke-width:1.1604;stroke-miterlimit:10;}
</style>
<g>
	<g>
		<circle class="st0" cx="48" cy="48" r="36"/>
		<g>
			<path d="M48,12.5c19.5,0,35.5,15.9,35.5,35.5S67.5,83.5,48,83.5S12.5,67.5,12.5,48S28.5,12.5,48,12.5 M48,11.4
				c-20.2,0-36.6,16.4-36.6,36.6S27.8,84.6,48,84.6S84.6,68.2,84.6,48S68.2,11.4,48,11.4L48,11.4z"/>
		</g>
	</g>
	<g>
		<path class="st1" d="M48.3,71.1c-8.6,0-16.7-4.3-21.5-11.4c-0.1-0.2-0.1-0.4,0-0.5c0.1-0.2,0.3-0.3,0.4-0.3h42.1
			c0.2,0,0.4,0.1,0.4,0.3c0,0.1,0.1,0.3,0,0.5C65,66.9,56.9,71.1,48.3,71.1z"/>
		<path d="M69.2,59.5c-4.7,6.9-12.5,11-20.9,11s-16.2-4.1-20.9-11H69.2 M69.3,58.4H27.2c-0.8,0-1.4,0.9-0.9,1.7
			c4.7,7,12.8,11.7,22,11.7s17.2-4.6,22-11.7C70.7,59.3,70.2,58.4,69.3,58.4L69.3,58.4z"/>
	</g>
	<path class="st2" d="M70,44.7c0-4.3-3.5-7.8-7.8-7.8c-4.3,0-7.8,3.5-7.8,7.8c0,0.1,0,0.2,0,0.3"/>
	<path class="st2" d="M42.8,45c0-0.1,0-0.2,0-0.3c0-4.3-3.5-7.8-7.8-7.8c-4.3,0-7.8,3.5-7.8,7.8"/>
</g>
</svg>
