<?xml version="1.0" encoding="utf-8"?>
<!-- Generator: Adobe Illustrator 24.1.2, SVG Export Plug-In . SVG Version: 6.00 Build 0)  -->
<svg version="1.1" id="Capa_1" xmlns="http://www.w3.org/2000/svg" xmlns:xlink="http://www.w3.org/1999/xlink" x="0px" y="0px"
	 viewBox="0 0 96 96" style="enable-background:new 0 0 96 96;" xml:space="preserve">
<style type="text/css">
	.st0{fill:#FFFFFF;}
	.st1{fill:#FF4573;}
	.st2{fill:#31A1D6;}
	.st3{fill:#FFB03A;}
	.st4{fill:none;stroke:#000000;stroke-width:0.8976;stroke-miterlimit:10;}
</style>
<g>
	<g>
		<path class="st0" d="M22,79.6c-3.8,0-6.8-3.1-6.8-6.8V23.2c0-3.8,3.1-6.8,6.8-6.8H74c3.8,0,6.8,3.1,6.8,6.8v49.7
			c0,3.8-3.1,6.8-6.8,6.8H22z"/>
		<g>
			<path d="M74,16.8c3.5,0,6.4,2.9,6.4,6.4v49.7c0,3.5-2.9,6.4-6.4,6.4H22c-3.5,0-6.4-2.9-6.4-6.4V23.2c0-3.5,2.9-6.4,6.4-6.4H74
				 M74,15.9H22c-4,0-7.3,3.3-7.3,7.3v49.7c0,4,3.3,7.3,7.3,7.3H74c4,0,7.3-3.3,7.3-7.3V23.2C81.2,19.2,78,15.9,74,15.9L74,15.9z"/>
		</g>
	</g>
	<g>
		<path class="st1" d="M26,38.8c-1.6,0-2.9-1.3-2.9-2.9v-9.2c0-1.6,1.3-2.9,2.9-2.9h10.3c1.6,0,2.9,1.3,2.9,2.9v9.2
			c0,1.6-1.3,2.9-2.9,2.9H26z"/>
		<g>
			<path d="M36.3,24c1.5,0,2.7,1.2,2.7,2.7v9.2c0,1.5-1.2,2.7-2.7,2.7H26c-1.5,0-2.7-1.2-2.7-2.7v-9.2c0-1.5,1.2-2.7,2.7-2.7H36.3
				 M36.3,23.5H26c-1.7,0-3.1,1.4-3.1,3.1v9.2c0,1.7,1.4,3.1,3.1,3.1h10.3c1.7,0,3.1-1.4,3.1-3.1v-9.2
				C39.5,24.9,38.1,23.5,36.3,23.5L36.3,23.5z"/>
		</g>
	</g>
	<g>
		<path class="st2" d="M61.9,57.2c-1.6,0-2.9-1.3-2.9-2.9v-9.6c0-1.6,1.3-2.9,2.9-2.9h10.8c1.6,0,2.9,1.3,2.9,2.9v9.6
			c0,1.6-1.3,2.9-2.9,2.9H61.9z"/>
		<g>
			<path d="M72.7,42c1.5,0,2.7,1.2,2.7,2.7v9.6c0,1.5-1.2,2.7-2.7,2.7H61.9c-1.5,0-2.7-1.2-2.7-2.7v-9.6c0-1.5,1.2-2.7,2.7-2.7H72.7
				 M72.7,41.6H61.9c-1.7,0-3.1,1.4-3.1,3.1v9.6c0,1.7,1.4,3.1,3.1,3.1h10.8c1.7,0,3.1-1.4,3.1-3.1v-9.6
				C75.8,43,74.4,41.6,72.7,41.6L72.7,41.6z"/>
		</g>
	</g>
	<g>
		<path class="st3" d="M26.5,73.4c-1.5,0-2.7-1.2-2.7-2.7V61c0-1.5,1.2-2.7,2.7-2.7h10.8c1.5,0,2.7,1.2,2.7,2.7v9.6
			c0,1.5-1.2,2.7-2.7,2.7H26.5z"/>
		<g>
			<path d="M37.2,58.8c1.2,0,2.2,1,2.2,2.2v9.6c0,1.2-1,2.2-2.2,2.2H26.5c-1.2,0-2.2-1-2.2-2.2V61c0-1.2,1-2.2,2.2-2.2H37.2
				 M37.2,57.9H26.5c-1.7,0-3.1,1.4-3.1,3.1v9.6c0,1.7,1.4,3.1,3.1,3.1h10.8c1.7,0,3.1-1.4,3.1-3.1V61C40.4,59.3,39,57.9,37.2,57.9
				L37.2,57.9z"/>
		</g>
	</g>
	<g>
		<line class="st4" x1="42.6" y1="26.5" x2="70.9" y2="26.5"/>
	</g>
	<g>
		<line class="st4" x1="42.6" y1="31.1" x2="70.9" y2="31.1"/>
	</g>
	<g>
		<line class="st4" x1="42.6" y1="35.7" x2="70.9" y2="35.7"/>
	</g>
	<g>
		<line class="st4" x1="28.4" y1="44.5" x2="56.6" y2="44.5"/>
	</g>
	<g>
		<line class="st4" x1="28.4" y1="49.1" x2="56.6" y2="49.1"/>
	</g>
	<g>
		<line class="st4" x1="28.4" y1="53.7" x2="56.6" y2="53.7"/>
	</g>
	<g>
		<line class="st4" x1="42.7" y1="62" x2="71" y2="62"/>
	</g>
	<g>
		<line class="st4" x1="42.7" y1="66.6" x2="71" y2="66.6"/>
	</g>
	<g>
		<line class="st4" x1="42.7" y1="71.2" x2="71" y2="71.2"/>
	</g>
	<g>
		<circle class="st1" cx="58.1" cy="55.6" r="2.9"/>
		<g>
			<path d="M58.1,52.9c1.5,0,2.7,1.2,2.7,2.7s-1.2,2.7-2.7,2.7s-2.7-1.2-2.7-2.7S56.6,52.9,58.1,52.9 M58.1,52.5
				c-1.7,0-3.1,1.4-3.1,3.1c0,1.7,1.4,3.1,3.1,3.1s3.1-1.4,3.1-3.1C61.2,53.9,59.8,52.5,58.1,52.5L58.1,52.5z"/>
		</g>
	</g>
	<g>
		
			<rect x="56.5" y="55.1" transform="matrix(0.7071 -0.7071 0.7071 0.7071 -23.3292 56.7095)" class="st0" width="0.6" height="2.8"/>
		<polygon points="56,55.3 55.6,55.7 57.6,57.7 58,57.3 56,55.3 		"/>
	</g>
	<g>
		<rect x="56.6" y="55.5" transform="matrix(0.643 -0.7659 0.7659 0.643 -21.7113 64.9823)" class="st0" width="4.6" height="0.6"/>
		<polygon points="60.1,53.8 57.1,57.3 57.6,57.7 60.6,54.2 60.1,53.8 		"/>
	</g>
</g>
</svg>
