<?xml version="1.0" encoding="utf-8"?>
<!-- Generator: Adobe Illustrator 24.1.2, SVG Export Plug-In . SVG Version: 6.00 Build 0)  -->
<svg version="1.1" id="Capa_1" xmlns="http://www.w3.org/2000/svg" xmlns:xlink="http://www.w3.org/1999/xlink" x="0px" y="0px"
	 viewBox="0 0 96 96" style="enable-background:new 0 0 96 96;" xml:space="preserve">
<style type="text/css">
	.st0{fill:#FF4573;}
	.st1{fill:#FFFFFF;}
	.st2{fill:#FFB03A;}
	.st3{fill:none;stroke:#000000;stroke-width:0.9687;stroke-miterlimit:10;}
	.st4{fill:#31A1D6;}
</style>
<g>
	<g>
		<path class="st0" d="M33.2,85.8c-3.7,0-6.7-3-6.7-6.7V17c0-3.7,3-6.7,6.7-6.7h29.6c3.7,0,6.7,3,6.7,6.7V79c0,3.7-3,6.7-6.7,6.7
			H33.2z"/>
		<g>
			<path d="M62.8,10.5c3.6,0,6.5,2.9,6.5,6.5V79c0,3.6-2.9,6.5-6.5,6.5H33.2c-3.6,0-6.5-2.9-6.5-6.5V17c0-3.6,2.9-6.5,6.5-6.5H62.8
				 M62.8,10H33.2c-3.9,0-7,3.1-7,7V79c0,3.9,3.1,7,7,7h29.6c3.9,0,7-3.1,7-7V17C69.8,13.1,66.7,10,62.8,10L62.8,10z"/>
		</g>
	</g>
	<g>
		<path class="st1" d="M35.5,83.8c-3.6,0-6.5-2.9-6.5-6.5V18.6c0-3.6,2.9-6.5,6.5-6.5h25.1c3.6,0,6.5,2.9,6.5,6.5v58.7
			c0,3.6-2.9,6.5-6.5,6.5H35.5z"/>
		<path d="M60.6,12.6c3.3,0,6,2.7,6,6v58.7c0,3.3-2.7,6-6,6H35.5c-3.3,0-6-2.7-6-6V18.6c0-3.3,2.7-6,6-6H60.6 M60.6,11.6H35.5
			c-3.9,0-7,3.1-7,7v58.7c0,3.9,3.1,7,7,7h25.1c3.9,0,7-3.1,7-7V18.6C67.6,14.7,64.5,11.6,60.6,11.6L60.6,11.6z"/>
	</g>
	<g>
		<path class="st2" d="M48.5,39.3c-3.4,0-6.2-2.8-6.2-6.2s2.8-6.2,6.2-6.2s6.2,2.8,6.2,6.2S51.9,39.3,48.5,39.3z"/>
		<path d="M48.5,27.5c3.1,0,5.7,2.6,5.7,5.7s-2.6,5.7-5.7,5.7s-5.7-2.6-5.7-5.7S45.3,27.5,48.5,27.5 M48.5,26.5
			c-3.7,0-6.7,3-6.7,6.7c0,3.7,3,6.7,6.7,6.7s6.7-3,6.7-6.7C55.1,29.5,52.1,26.5,48.5,26.5L48.5,26.5z"/>
	</g>
	<g>
		<path class="st1" d="M45.4,37v-1.4c0-1.7,1.4-3.2,3.2-3.2c1.7,0,3.2,1.4,3.2,3.2V37H45.4z"/>
		<path d="M48.6,32.8c1.5,0,2.7,1.2,2.7,2.7v1h-5.4v-1C45.9,34,47.1,32.8,48.6,32.8 M48.6,31.9c-2,0-3.6,1.6-3.6,3.6v1.9h7.3v-1.9
			C52.2,33.5,50.6,31.9,48.6,31.9L48.6,31.9z"/>
	</g>
	<g>
		<path class="st1" d="M48.5,32.8c-1.2,0-2.3-1-2.3-2.3s1-2.3,2.3-2.3c1.2,0,2.3,1,2.3,2.3S49.8,32.8,48.5,32.8z"/>
		<path d="M48.5,28.8c1,0,1.8,0.8,1.8,1.8c0,1-0.8,1.8-1.8,1.8s-1.8-0.8-1.8-1.8C46.8,29.6,47.6,28.8,48.5,28.8 M48.5,27.8
			c-1.5,0-2.7,1.2-2.7,2.7c0,1.5,1.2,2.7,2.7,2.7s2.7-1.2,2.7-2.7C51.3,29.1,50.1,27.8,48.5,27.8L48.5,27.8z"/>
	</g>
	<g>
		<line class="st3" x1="35.8" y1="45.8" x2="60.9" y2="45.8"/>
	</g>
	<g>
		<line class="st3" x1="35.8" y1="49.5" x2="60.9" y2="49.5"/>
	</g>
	<g>
		<circle class="st0" cx="39.4" cy="65.7" r="5.1"/>
		<path d="M39.4,60.9c2.7,0,4.8,2.2,4.8,4.8s-2.2,4.8-4.8,4.8s-4.8-2.2-4.8-4.8S36.7,60.9,39.4,60.9 M39.4,60.4
			c-2.9,0-5.3,2.4-5.3,5.3c0,2.9,2.4,5.3,5.3,5.3s5.3-2.4,5.3-5.3C44.7,62.8,42.3,60.4,39.4,60.4L39.4,60.4z"/>
	</g>
	<g>
		<path class="st4" d="M56.8,70.8c-2.8,0-5.1-2.3-5.1-5.1s2.3-5.1,5.1-5.1c2.8,0,5.1,2.3,5.1,5.1S59.6,70.8,56.8,70.8z"/>
		<path d="M56.8,60.9c2.7,0,4.8,2.2,4.8,4.8s-2.2,4.8-4.8,4.8S52,68.4,52,65.7S54.2,60.9,56.8,60.9 M56.8,60.4
			c-2.9,0-5.3,2.4-5.3,5.3c0,2.9,2.4,5.3,5.3,5.3s5.3-2.4,5.3-5.3C62.2,62.8,59.8,60.4,56.8,60.4L56.8,60.4z"/>
	</g>
</g>
</svg>
