<?xml version="1.0" encoding="utf-8"?>
<!-- Generator: Adobe Illustrator 24.1.2, SVG Export Plug-In . SVG Version: 6.00 Build 0)  -->
<svg version="1.1" id="Capa_1" xmlns="http://www.w3.org/2000/svg" xmlns:xlink="http://www.w3.org/1999/xlink" x="0px" y="0px"
	 viewBox="0 0 96 96" style="enable-background:new 0 0 96 96;" xml:space="preserve">
<style type="text/css">
	.st0{fill:#31A1D6;}
	.st1{fill:#FFFFFF;}
	.st2{fill:none;stroke:#000000;stroke-width:0.9637;stroke-miterlimit:10;}
	.st3{fill:#FFB03A;}
</style>
<g>
	<g>
		<path class="st0" d="M70.1,71.4c-0.2,0-0.4,0-0.6-0.1l-21.3-5.7c-1.3-0.4-2.1-1.7-1.7-3l11.9-44.1c0.3-1.1,1.3-1.8,2.4-1.8
			c0.2,0,0.4,0,0.6,0.1l21.3,5.7c1.3,0.4,2.1,1.7,1.7,3L72.5,69.5C72.2,70.6,71.2,71.4,70.1,71.4z"/>
		<g>
			<path d="M60.7,16.8L60.7,16.8c0.2,0,0.4,0,0.6,0.1l21.3,5.7c1.2,0.3,1.9,1.5,1.6,2.7L72.3,69.5c-0.3,1-1.1,1.7-2.2,1.7
				c-0.2,0-0.4,0-0.6-0.1l-21.3-5.7c-0.6-0.2-1.1-0.5-1.4-1c-0.3-0.5-0.4-1.1-0.2-1.7l11.9-44.1C58.8,17.5,59.7,16.8,60.7,16.8
				 M60.7,16.4c-1.2,0-2.3,0.8-2.6,2L46.2,62.4c-0.4,1.4,0.5,2.9,1.9,3.3l21.3,5.7c0.2,0.1,0.5,0.1,0.7,0.1c1.2,0,2.3-0.8,2.6-2
				l11.9-44.1c0.4-1.4-0.5-2.9-1.9-3.3l-21.3-5.7C61.2,16.4,60.9,16.4,60.7,16.4L60.7,16.4z"/>
		</g>
	</g>
	<g>
		<path class="st1" d="M65.4,51c-4,0-7.2-3.2-7.2-7.2s3.2-7.2,7.2-7.2s7.2,3.2,7.2,7.2S69.4,51,65.4,51z"/>
		<g>
			<path d="M65.4,37c3.7,0,6.7,3,6.7,6.7s-3,6.7-6.7,6.7s-6.7-3-6.7-6.7S61.7,37,65.4,37 M65.4,36c-4.3,0-7.7,3.5-7.7,7.7
				s3.5,7.7,7.7,7.7s7.7-3.5,7.7-7.7S69.7,36,65.4,36L65.4,36z"/>
		</g>
	</g>
	<g>
		<g>
			<path d="M65.6,63.5c-0.4,0.4-0.9,0.6-1.3,0.7c-0.5,0.1-1,0-1.4-0.1c-0.5-0.2-1-0.4-1.2-0.7c-0.3-0.3-0.5-0.7-0.6-1.1
				c-0.1-0.4-0.1-0.8-0.1-1.3c0-0.4,0-0.9,0-1.3c0-0.4,0-0.8-0.1-1.2c-0.1-0.4-0.2-0.7-0.4-1c-0.2-0.3-0.6-0.5-1.1-0.7
				c-0.4-0.1-0.8-0.2-1.2-0.1c-0.4,0.1-0.8,0.3-1.1,0.6c-0.3,0.3-0.6,0.8-0.8,1.4C56,59,56,59.4,56,59.9c0,0.5,0.1,1,0.3,1.4
				l-0.5,0.1c-0.2-0.4-0.3-0.9-0.3-1.4c0-0.5,0-1,0.2-1.5c0.2-0.7,0.5-1.2,1-1.6c0.4-0.4,0.9-0.6,1.3-0.7s1,0,1.4,0.1
				c0.6,0.2,1,0.4,1.3,0.7c0.3,0.3,0.5,0.7,0.6,1.1c0.1,0.4,0.1,0.8,0.1,1.3c0,0.4,0,0.9,0,1.3c0,0.4,0,0.8,0.1,1.2
				c0.1,0.4,0.2,0.7,0.4,1c0.2,0.3,0.6,0.5,1.1,0.7c0.4,0.1,0.8,0.2,1.2,0.1c0.4-0.1,0.8-0.3,1.1-0.6c0.3-0.3,0.6-0.8,0.8-1.4
				c0.2-0.6,0.3-1.2,0.2-1.8c-0.1-0.6-0.3-1.1-0.6-1.6l0.4-0.1c0.3,0.4,0.5,1,0.6,1.7c0.1,0.7,0,1.3-0.2,2
				C66.3,62.5,66,63.1,65.6,63.5z"/>
		</g>
		<line class="st2" x1="54" y1="57.5" x2="68.6" y2="62.3"/>
	</g>
	<g>
		<g>
			<path d="M75.2,33c-0.4,0.4-0.9,0.6-1.3,0.7c-0.5,0.1-1,0-1.4-0.1c-0.5-0.2-1-0.4-1.2-0.7c-0.3-0.3-0.5-0.7-0.6-1.1
				c-0.1-0.4-0.1-0.8-0.1-1.3c0-0.4,0-0.9,0-1.3c0-0.4,0-0.8-0.1-1.2c-0.1-0.4-0.2-0.7-0.4-1c-0.2-0.3-0.6-0.5-1.1-0.7
				c-0.4-0.1-0.8-0.2-1.2-0.1c-0.4,0.1-0.8,0.3-1.1,0.6c-0.3,0.3-0.6,0.8-0.8,1.4c-0.1,0.4-0.2,0.8-0.2,1.3c0,0.5,0.1,1,0.3,1.4
				l-0.5,0.1c-0.2-0.4-0.3-0.9-0.3-1.4c0-0.5,0-1,0.2-1.5c0.2-0.7,0.5-1.2,1-1.6c0.4-0.4,0.9-0.6,1.3-0.7s1,0,1.4,0.1
				c0.6,0.2,1,0.4,1.3,0.7c0.3,0.3,0.5,0.7,0.6,1.1c0.1,0.4,0.1,0.8,0.1,1.3c0,0.4,0,0.9,0,1.3c0,0.4,0,0.8,0.1,1.2
				c0.1,0.4,0.2,0.7,0.4,1c0.2,0.3,0.6,0.5,1.1,0.7c0.4,0.1,0.8,0.2,1.2,0.1c0.4-0.1,0.8-0.3,1.1-0.6c0.3-0.3,0.6-0.8,0.8-1.4
				c0.2-0.6,0.3-1.2,0.2-1.8c-0.1-0.6-0.3-1.1-0.6-1.6l0.4-0.1c0.3,0.4,0.5,1,0.6,1.7c0.1,0.7,0,1.3-0.2,2C76,32,75.6,32.6,75.2,33z
				"/>
		</g>
		<line class="st2" x1="63.6" y1="27" x2="78.3" y2="31.8"/>
	</g>
	<g>
		<path class="st0" d="M28.6,72c-1.1,0-2.1-0.7-2.5-1.8L11.7,27.2c-0.5-1.4,0.3-2.8,1.6-3.3L34,17c0.3-0.1,0.5-0.1,0.8-0.1
			c1.1,0,2.1,0.7,2.5,1.8l14.5,43.1c0.2,0.7,0.2,1.4-0.1,2s-0.8,1.1-1.5,1.3l-20.7,6.9C29.1,72,28.9,72,28.6,72z"/>
		<g>
			<path d="M34.8,17.1L34.8,17.1c1,0,1.9,0.6,2.2,1.6l14.5,43.1c0.2,0.6,0.2,1.2-0.1,1.8c-0.3,0.6-0.8,1-1.4,1.2l-20.7,6.9
				c-0.2,0.1-0.5,0.1-0.7,0.1c-1,0-1.9-0.6-2.2-1.6L11.9,27.1c-0.4-1.2,0.3-2.6,1.5-3l20.7-6.9C34.3,17.2,34.6,17.1,34.8,17.1
				 M34.8,16.6c-0.3,0-0.6,0-0.9,0.1l-20.7,6.9c-1.5,0.5-2.3,2.1-1.8,3.6l14.5,43.1c0.4,1.2,1.5,1.9,2.7,1.9c0.3,0,0.6,0,0.9-0.1
				l20.7-6.9c1.5-0.5,2.3-2.1,1.8-3.6L37.5,18.6C37.1,17.4,36,16.6,34.8,16.6L34.8,16.6z"/>
		</g>
	</g>
	<g>
		<path class="st1" d="M32.2,51c-4,0-7.2-3.2-7.2-7.2s3.2-7.2,7.2-7.2s7.2,3.2,7.2,7.2S36.2,51,32.2,51z"/>
		<g>
			<path d="M32.2,37c3.7,0,6.7,3,6.7,6.7s-3,6.7-6.7,6.7s-6.7-3-6.7-6.7S28.5,37,32.2,37 M32.2,36c-4.3,0-7.7,3.5-7.7,7.7
				s3.5,7.7,7.7,7.7s7.7-3.5,7.7-7.7S36.4,36,32.2,36L32.2,36z"/>
		</g>
	</g>
	<g>
		<g>
			<path d="M31.1,61.8c-0.2-0.7-0.3-1.3-0.2-2c0.1-0.7,0.3-1.2,0.6-1.7l0.4,0.1c-0.3,0.4-0.5,0.9-0.6,1.6c-0.1,0.6,0,1.2,0.2,1.8
				c0.2,0.6,0.5,1.1,0.8,1.4c0.3,0.3,0.7,0.5,1.1,0.6c0.4,0.1,0.8,0.1,1.2-0.1c0.5-0.2,0.8-0.4,1.1-0.7c0.2-0.3,0.4-0.6,0.4-1
				c0.1-0.4,0.1-0.8,0.1-1.2c0-0.4,0-0.9,0-1.3c0-0.4,0-0.9,0.1-1.3c0.1-0.4,0.3-0.8,0.6-1.1c0.3-0.3,0.7-0.6,1.3-0.7
				c0.5-0.2,1-0.2,1.4-0.1s0.9,0.3,1.3,0.7c0.4,0.4,0.7,0.9,1,1.6c0.2,0.5,0.2,1,0.2,1.5c0,0.5-0.1,1-0.3,1.4l-0.5-0.1
				c0.2-0.5,0.3-0.9,0.3-1.4c0-0.5-0.1-0.9-0.2-1.3c-0.2-0.6-0.5-1.1-0.8-1.4c-0.3-0.3-0.7-0.5-1.1-0.6c-0.4-0.1-0.8,0-1.2,0.1
				c-0.5,0.2-0.9,0.4-1.1,0.7c-0.2,0.3-0.4,0.6-0.4,1c-0.1,0.4-0.1,0.8-0.1,1.2c0,0.4,0,0.9,0,1.3c0,0.4,0,0.9-0.1,1.3
				c-0.1,0.4-0.3,0.8-0.6,1.1c-0.3,0.3-0.7,0.6-1.2,0.7c-0.5,0.2-1,0.2-1.4,0.1c-0.5-0.1-0.9-0.3-1.3-0.7
				C31.6,63.1,31.3,62.5,31.1,61.8z"/>
		</g>
		<line class="st2" x1="43.6" y1="57.5" x2="29" y2="62.3"/>
	</g>
	<g>
		<g>
			<path d="M21.4,31.3c-0.2-0.7-0.3-1.3-0.2-2c0.1-0.7,0.3-1.2,0.6-1.7l0.4,0.1c-0.3,0.4-0.5,0.9-0.6,1.6c-0.1,0.6,0,1.2,0.2,1.8
				c0.2,0.6,0.5,1.1,0.8,1.4c0.3,0.3,0.7,0.5,1.1,0.6c0.4,0.1,0.8,0.1,1.2-0.1c0.5-0.2,0.8-0.4,1.1-0.7c0.2-0.3,0.4-0.6,0.4-1
				c0.1-0.4,0.1-0.8,0.1-1.2c0-0.4,0-0.9,0-1.3c0-0.4,0-0.9,0.1-1.3c0.1-0.4,0.3-0.8,0.6-1.1c0.3-0.3,0.7-0.6,1.3-0.7
				c0.5-0.2,1-0.2,1.4-0.1c0.5,0.1,0.9,0.3,1.3,0.7c0.4,0.4,0.7,0.9,1,1.6c0.2,0.5,0.2,1,0.2,1.5c0,0.5-0.1,1-0.3,1.4l-0.5-0.1
				c0.2-0.5,0.3-0.9,0.3-1.4c0-0.5-0.1-0.9-0.2-1.3c-0.2-0.6-0.5-1.1-0.8-1.4c-0.3-0.3-0.7-0.5-1.1-0.6c-0.4-0.1-0.8,0-1.2,0.1
				c-0.5,0.2-0.9,0.4-1.1,0.7c-0.2,0.3-0.4,0.6-0.4,1C27,28.3,27,28.7,27,29.1c0,0.4,0,0.9,0,1.3c0,0.4,0,0.9-0.1,1.3
				c-0.1,0.4-0.3,0.8-0.6,1.1c-0.3,0.3-0.7,0.6-1.2,0.7c-0.5,0.2-1,0.2-1.4,0.1c-0.5-0.1-0.9-0.3-1.3-0.7
				C21.9,32.6,21.6,32,21.4,31.3z"/>
		</g>
		<line class="st2" x1="34" y1="27" x2="19.3" y2="31.8"/>
	</g>
	<g>
		<path class="st3" d="M49.3,79.2c-8.2,0-14.9-6.7-14.9-14.9S41,49.3,49.3,49.3c8.2,0,14.9,6.7,14.9,14.9S57.5,79.2,49.3,79.2z"/>
		<g>
			<path d="M49.3,49.8c8,0,14.5,6.5,14.5,14.5s-6.5,14.5-14.5,14.5s-14.5-6.5-14.5-14.5S41.3,49.8,49.3,49.8 M49.3,48.8
				c-8.5,0-15.4,6.9-15.4,15.4s6.9,15.4,15.4,15.4s15.4-6.9,15.4-15.4S57.8,48.8,49.3,48.8L49.3,48.8z"/>
		</g>
	</g>
	<g>
		<path class="st3" d="M49.3,77.2c-7.2,0-13-5.8-13-13s5.8-13,13-13s13,5.8,13,13S56.4,77.2,49.3,77.2z"/>
		<g>
			<path d="M49.3,51.7c6.9,0,12.5,5.6,12.5,12.5s-5.6,12.5-12.5,12.5s-12.5-5.6-12.5-12.5S42.4,51.7,49.3,51.7 M49.3,50.7
				c-7.4,0-13.5,6-13.5,13.5c0,7.4,6,13.5,13.5,13.5s13.5-6,13.5-13.5C62.7,56.7,56.7,50.7,49.3,50.7L49.3,50.7z"/>
		</g>
	</g>
	<g>
		<g>
			<path d="M49.7,71.8c-0.9,0-1.7-0.2-2.5-0.5c-0.8-0.4-1.4-0.8-1.8-1.4l0.3-0.5c0.4,0.5,0.9,0.9,1.7,1.3c0.7,0.3,1.5,0.5,2.3,0.5
				c0.8,0,1.5-0.1,2.1-0.4c0.5-0.3,0.9-0.6,1.2-1c0.3-0.4,0.4-0.9,0.4-1.5c0-0.6-0.1-1.1-0.4-1.5c-0.3-0.4-0.6-0.7-1.1-0.9
				c-0.5-0.2-0.9-0.4-1.5-0.5c-0.5-0.1-1.1-0.3-1.6-0.5c-0.5-0.2-1-0.4-1.5-0.6c-0.5-0.3-0.8-0.6-1.1-1.1c-0.3-0.4-0.4-1-0.4-1.7
				c0-0.6,0.1-1.2,0.4-1.7s0.7-1,1.3-1.3c0.6-0.3,1.4-0.5,2.3-0.5c0.7,0,1.3,0.1,1.9,0.3c0.6,0.2,1.2,0.5,1.6,0.9l-0.3,0.5
				c-0.5-0.4-1-0.7-1.6-0.9c-0.6-0.2-1.2-0.3-1.7-0.3c-0.8,0-1.5,0.1-2,0.4c-0.5,0.3-0.9,0.6-1.2,1.1c-0.3,0.4-0.4,0.9-0.4,1.5
				c0,0.6,0.1,1.1,0.4,1.5c0.3,0.4,0.6,0.7,1.1,0.9c0.5,0.2,1,0.4,1.5,0.5c0.5,0.1,1.1,0.3,1.6,0.5c0.5,0.2,1,0.4,1.5,0.6
				c0.5,0.3,0.8,0.6,1.1,1c0.3,0.4,0.4,1,0.4,1.7c0,0.6-0.1,1.2-0.4,1.7c-0.3,0.5-0.8,1-1.4,1.3C51.5,71.6,50.7,71.8,49.7,71.8z"/>
		</g>
		<line class="st2" x1="49.5" y1="55.5" x2="49.5" y2="74.3"/>
	</g>
</g>
</svg>
