<?xml version="1.0" encoding="utf-8"?>
<!-- Generator: Adobe Illustrator 24.1.2, SVG Export Plug-In . SVG Version: 6.00 Build 0)  -->
<svg version="1.1" id="Capa_1" xmlns="http://www.w3.org/2000/svg" xmlns:xlink="http://www.w3.org/1999/xlink" x="0px" y="0px"
	 viewBox="0 0 96 96" style="enable-background:new 0 0 96 96;" xml:space="preserve">
<style type="text/css">
	.st0{fill:#31A1D6;}
	.st1{fill:#FFFFFF;}
	.st2{fill:#FFB03A;}
	.st3{fill:#FFFFFF;stroke:#000000;stroke-width:0.5145;stroke-miterlimit:10;}
	.st4{fill:none;stroke:#000000;stroke-width:1.0291;stroke-miterlimit:10;}
	.st5{fill:#FF4573;}
</style>
<g>
	<g>
		<rect x="35.1" y="70.5" class="st0" width="25.7" height="4.6"/>
		<path d="M60.6,70.8v4.1H35.4v-4.1H60.6 M61.1,70.3H34.9v5.1h26.2V70.3L61.1,70.3z"/>
	</g>
	<g>
		<path class="st0" d="M18.2,70.3c-4.4,0-8.1-3.6-8.1-8.1V22.7c0-4.4,3.6-8.1,8.1-8.1h59.5c4.4,0,8.1,3.6,8.1,8.1v39.4
			c0,4.4-3.6,8.1-8.1,8.1H18.2z"/>
		<g>
			<path d="M77.8,14.9c4.3,0,7.8,3.5,7.8,7.8v39.4c0,4.3-3.5,7.8-7.8,7.8H18.2c-4.3,0-7.8-3.5-7.8-7.8V22.7c0-4.3,3.5-7.8,7.8-7.8
				H77.8 M77.8,14.4H18.2c-4.6,0-8.3,3.7-8.3,8.3v39.4c0,4.6,3.7,8.3,8.3,8.3h59.5c4.6,0,8.3-3.7,8.3-8.3V22.7
				C86.1,18.2,82.3,14.4,77.8,14.4L77.8,14.4z"/>
		</g>
	</g>
	<g>
		<path class="st0" d="M25.4,81.3v-4.4c0-1.3,1-2.3,2.3-2.3h41.2c1.3,0,2.3,1,2.3,2.3v4.4H25.4z"/>
		<g>
			<path d="M68.9,74.9c1.1,0,2,0.9,2,2v4.1H25.6v-4.1c0-1.1,0.9-2,2-2H68.9 M68.9,74.4H27.7c-1.4,0-2.6,1.1-2.6,2.6v4.6h46.3v-4.6
				C71.4,75.5,70.3,74.4,68.9,74.4L68.9,74.4z"/>
		</g>
	</g>
	<g>
		<path class="st1" d="M22.6,65.7c-4.3,0-7.8-3.5-7.8-7.8V27.2c0-4.3,3.5-7.8,7.8-7.8h51.2c4.3,0,7.8,3.5,7.8,7.8v30.7
			c0,4.3-3.5,7.8-7.8,7.8H22.6z"/>
		<path d="M73.9,19.9c4,0,7.3,3.3,7.3,7.3v30.7c0,4-3.3,7.3-7.3,7.3H22.6c-4,0-7.3-3.3-7.3-7.3V27.2c0-4,3.3-7.3,7.3-7.3H73.9
			 M73.9,18.9H22.6c-4.6,0-8.3,3.7-8.3,8.3v30.7c0,4.6,3.7,8.3,8.3,8.3h51.2c4.6,0,8.3-3.7,8.3-8.3V27.2
			C82.2,22.6,78.5,18.9,73.9,18.9L73.9,18.9z"/>
	</g>
	<g>
		<path class="st2" d="M25.1,36.7v-1.6l-0.2,0c-0.3-0.1-0.6-0.2-0.9-0.3l-0.2-0.1l-1.3,1.3l-0.7-0.7l1.2-1.2l-0.1-0.2
			c-0.3-0.4-0.5-0.8-0.6-1.2l0-0.2h-1.6v-1h1.6l0-0.2c0.1-0.4,0.3-0.8,0.5-1.1l0.1-0.2l-1.3-1.3l0.7-0.7l1.3,1.3l0.2-0.1
			c0.3-0.2,0.6-0.3,1-0.4l0.2,0v-1.6h1v1.6l0.2,0c0.4,0.1,0.7,0.2,1,0.4l0.2,0.1l1.2-1.2l0.7,0.7l-1.2,1.2l0.1,0.2
			c0.2,0.3,0.4,0.7,0.4,1.1l0,0.2h1.6v1h-1.6l0,0.2c0,0.2-0.1,0.3-0.2,0.5c0,0.1-0.1,0.3-0.2,0.5l-0.1,0.2l0.1,0.2l1.1,1.1l-0.7,0.7
			l-1.3-1.3l-0.2,0.1c-0.3,0.2-0.7,0.4-1.1,0.5l-0.2,0v1.6H25.1z"/>
		<g>
			<path d="M25.9,27.2v1.1v0.4l0.4,0.1c0.3,0.1,0.7,0.2,1,0.4l0.3,0.2l0.3-0.3l0.9-0.9l0.4,0.4l-0.9,0.9L28,29.8l0.2,0.3
				c0.2,0.3,0.3,0.6,0.4,1l0.1,0.4h0.4h1.1V32h-1.1h-0.4l-0.1,0.4c0,0.2-0.1,0.3-0.2,0.5c-0.1,0.1-0.1,0.3-0.2,0.4l0,0.1l0,0
				l-0.1,0.3l0.2,0.2l1,1l-0.4,0.4L28,34.4l-0.3-0.3l-0.4,0.2c-0.3,0.2-0.7,0.4-1,0.4l-0.4,0.1v0.4v1.1h-0.5v-1.1v-0.4l-0.4-0.1
				c-0.3-0.1-0.6-0.2-0.8-0.3l-0.3-0.2l-0.3,0.3l-0.9,0.9l-0.4-0.4l0.9-0.9l0.3-0.3l-0.3-0.4c-0.2-0.3-0.4-0.7-0.5-1.1L22.5,32h-0.4
				H21v-0.5h1.1h0.4l0.1-0.4c0.1-0.4,0.2-0.7,0.4-1l0.2-0.4L23,29.4l-1-1l0.4-0.4l1,1l0.3,0.3l0.3-0.2c0.3-0.2,0.6-0.3,0.9-0.4
				l0.4-0.1v-0.4v-1.1H25.9 M26.4,26.6h-1.6v1.6c-0.4,0.1-0.7,0.2-1.1,0.4l-1.3-1.3l-1.1,1.1l1.3,1.3c-0.2,0.4-0.4,0.8-0.5,1.2h-1.6
				v1.6h1.6c0.1,0.5,0.3,0.9,0.6,1.3l-1.2,1.2l1.1,1.1l1.3-1.3c0.3,0.2,0.6,0.3,1,0.4v1.6h1.6v-1.6c0.4-0.1,0.8-0.3,1.2-0.5l1.3,1.3
				L30,35l-1.3-1.3l0,0c0.1-0.2,0.2-0.4,0.2-0.5c0.1-0.2,0.1-0.4,0.2-0.6h1.6V31h-1.6c-0.1-0.4-0.3-0.8-0.5-1.2l1.2-1.2l-1.1-1.1
				l-1.2,1.2c-0.3-0.2-0.7-0.4-1.1-0.5V26.6L26.4,26.6z"/>
		</g>
	</g>
	<circle class="st3" cx="25.6" cy="31.8" r="1.9"/>
	<g>
		<line class="st4" x1="34.9" y1="28.9" x2="75.3" y2="28.9"/>
	</g>
	<g>
		<line class="st4" x1="34.9" y1="34.1" x2="75.3" y2="34.1"/>
	</g>
	<g>
		<line class="st4" x1="27.7" y1="45.2" x2="69.2" y2="45.2"/>
	</g>
	<g>
		<line class="st4" x1="27.7" y1="49.3" x2="69.2" y2="49.3"/>
	</g>
	<g>
		<line class="st4" x1="27.8" y1="54.1" x2="69.3" y2="54.1"/>
	</g>
	<g>
		<line class="st4" x1="27.8" y1="58.3" x2="69.3" y2="58.3"/>
	</g>
	<g>
		<circle class="st5" cx="34.7" cy="45.3" r="1.4"/>
		<g>
			<path d="M34.7,44.1c0.6,0,1.2,0.5,1.2,1.2s-0.5,1.2-1.2,1.2s-1.2-0.5-1.2-1.2S34.1,44.1,34.7,44.1 M34.7,43.6
				c-0.9,0-1.7,0.7-1.7,1.7c0,0.9,0.7,1.7,1.7,1.7c0.9,0,1.7-0.7,1.7-1.7C36.4,44.4,35.7,43.6,34.7,43.6L34.7,43.6z"/>
		</g>
	</g>
	<g>
		<path class="st5" d="M57.9,59.9c-0.8,0-1.4-0.6-1.4-1.4s0.6-1.4,1.4-1.4s1.4,0.6,1.4,1.4S58.7,59.9,57.9,59.9z"/>
		<g>
			<path d="M57.9,57.3c0.6,0,1.2,0.5,1.2,1.2s-0.5,1.2-1.2,1.2s-1.2-0.5-1.2-1.2S57.2,57.3,57.9,57.3 M57.9,56.8
				c-0.9,0-1.7,0.7-1.7,1.7c0,0.9,0.7,1.7,1.7,1.7s1.7-0.7,1.7-1.7C59.6,57.6,58.8,56.8,57.9,56.8L57.9,56.8z"/>
		</g>
	</g>
	<g>
		<path class="st5" d="M63.4,50.7c-0.8,0-1.4-0.6-1.4-1.4s0.6-1.4,1.4-1.4s1.4,0.6,1.4,1.4S64.2,50.7,63.4,50.7z"/>
		<g>
			<path d="M63.4,48.1c0.6,0,1.2,0.5,1.2,1.2s-0.5,1.2-1.2,1.2s-1.2-0.5-1.2-1.2S62.8,48.1,63.4,48.1 M63.4,47.6
				c-0.9,0-1.7,0.7-1.7,1.7c0,0.9,0.7,1.7,1.7,1.7c0.9,0,1.7-0.7,1.7-1.7C65.1,48.4,64.3,47.6,63.4,47.6L63.4,47.6z"/>
		</g>
	</g>
	<g>
		<circle class="st5" cx="43.3" cy="54.4" r="1.4"/>
		<g>
			<path d="M43.3,53.3c0.6,0,1.2,0.5,1.2,1.2s-0.5,1.2-1.2,1.2s-1.2-0.5-1.2-1.2S42.7,53.3,43.3,53.3 M43.3,52.8
				c-0.9,0-1.7,0.7-1.7,1.7s0.7,1.7,1.7,1.7s1.7-0.7,1.7-1.7S44.3,52.8,43.3,52.8L43.3,52.8z"/>
		</g>
	</g>
</g>
</svg>
