<?xml version="1.0" encoding="utf-8"?>
<!-- Generator: Adobe Illustrator 24.1.2, SVG Export Plug-In . SVG Version: 6.00 Build 0)  -->
<svg version="1.1" id="Capa_1" xmlns="http://www.w3.org/2000/svg" xmlns:xlink="http://www.w3.org/1999/xlink" x="0px" y="0px"
	 viewBox="0 0 96 96" style="enable-background:new 0 0 96 96;" xml:space="preserve">
<style type="text/css">
	.st0{fill:#FFB03A;}
	.st1{fill:#FFFFFF;}
	.st2{fill:#FF4573;}
</style>
<g>
	<rect x="35.8" y="72.3" class="st0" width="23.5" height="3.7"/>
	<path d="M58.7,72.9v2.5H36.4v-2.5H58.7 M59.8,71.8H35.2v4.8h24.6V71.8L59.8,71.8z"/>
</g>
<g>
	<path class="st0" d="M28,71.4c-8.6,0-15.6-7-15.6-15.6V35.6C12.4,27,19.4,20,28,20h39.1c8.6,0,15.6,7,15.6,15.6v20.3
		c0,8.6-7,15.6-15.6,15.6H28z"/>
	<g>
		<path d="M67.1,20.5c8.3,0,15,6.7,15,15v20.3c0,8.3-6.7,15-15,15H28c-8.3,0-15-6.7-15-15V35.6c0-8.3,6.7-15,15-15H67.1 M67.1,19.4
			H28c-8.9,0-16.2,7.2-16.2,16.2v20.3C11.8,64.8,19,72,28,72h39.1c8.9,0,16.2-7.2,16.2-16.2V35.6C83.2,26.6,76,19.4,67.1,19.4
			L67.1,19.4z"/>
	</g>
</g>
<g>
	<path class="st0" d="M26.6,81.8v-1.2c0-2.4,2-4.4,4.4-4.4h33.5c2.4,0,4.4,2,4.4,4.4v1.2H26.6z"/>
	<g>
		<path d="M64.5,76.8c2.1,0,3.8,1.7,3.8,3.8v0.6H27.2v-0.6c0-2.1,1.7-3.8,3.8-3.8H64.5 M64.5,75.6H31c-2.7,0-5,2.2-5,5v1.8h43.4
			v-1.8C69.5,77.9,67.2,75.6,64.5,75.6L64.5,75.6z"/>
	</g>
</g>
<g>
	<path class="st1" d="M25.8,66.2c-4.9,0-8.9-4-8.9-8.9V33.7c0-4.9,4-8.9,8.9-8.9H69c4.9,0,8.9,4,8.9,8.9v23.6c0,4.9-4,8.9-8.9,8.9
		H25.8z"/>
	<g>
		<path d="M69,25.2c4.7,0,8.4,3.8,8.4,8.4v23.6c0,4.7-3.8,8.4-8.4,8.4H25.8c-4.7,0-8.4-3.8-8.4-8.4V33.7c0-4.7,3.8-8.4,8.4-8.4H69
			 M69,24.2H25.8c-5.2,0-9.4,4.2-9.4,9.4v23.6c0,5.2,4.2,9.4,9.4,9.4H69c5.2,0,9.4-4.2,9.4-9.4V33.7C78.4,28.5,74.2,24.2,69,24.2
			L69,24.2z"/>
	</g>
</g>
<g>
	<path class="st2" d="M24.2,66.4c-4.1,0-7.5-3.4-7.5-7.5V32c0-4.1,3.4-7.5,7.5-7.5H28l29.7,41.9H24.2z"/>
	<g>
		<path d="M27.9,24.7l29.3,41.3H24.2c-4,0-7.2-3.2-7.2-7.2V32c0-4,3.2-7.2,7.2-7.2H27.9 M28.1,24.2h-3.9c-4.3,0-7.8,3.5-7.8,7.8
			v26.9c0,4.3,3.5,7.8,7.8,7.8h34L28.1,24.2L28.1,24.2z"/>
	</g>
</g>
<g>
	<path class="st2" d="M58.9,46.2c-0.3,0-0.5-0.1-0.7-0.3L56,43.3c-0.5-0.5-0.3-1.6,0.3-2.4l22.3-25.5c0.8-1,1.9-1.5,2.9-1.5
		c0.7,0,1.3,0.3,1.7,0.7c1.1,1.3,0.8,3.7-0.7,5.4L60.2,45.6C59.9,46,59.4,46.2,58.9,46.2L58.9,46.2z"/>
	<g>
		<path d="M81.6,14.2c0.6,0,1.1,0.2,1.5,0.6c1,1.1,0.7,3.4-0.7,5L60,45.4c-0.3,0.4-0.7,0.6-1.1,0.6c-0.2,0-0.4-0.1-0.5-0.2l-2.3-2.6
			c-0.3-0.4-0.3-1.3,0.3-2l22.3-25.5C79.6,14.7,80.7,14.2,81.6,14.2 M81.6,13.6c-1,0-2.2,0.6-3.1,1.6L56.1,40.8
			c-0.8,0.9-0.9,2.1-0.3,2.7l2.3,2.6c0.2,0.3,0.6,0.4,0.9,0.4c0.5,0,1.1-0.3,1.5-0.8l22.3-25.5c1.6-1.8,1.9-4.4,0.7-5.8
			C83,13.9,82.3,13.6,81.6,13.6L81.6,13.6z"/>
	</g>
</g>
<g>
	<path class="st0" d="M50.3,53.6c-1.2,0-2.3-0.2-3.5-0.4c-1.7-0.3-2.8-0.6-3.3-0.8c0,0,0,0,0.1,0c0.6-0.2,1.6-0.4,2.5-1.1
		c1.7-1.2,2.2-2.9,2.6-4.4c0.4-1.4,0.8-2.6,1.9-3.3c0.6-0.4,1.3-0.6,2.2-0.6c1.4,0,2.7,0.6,2.7,0.7c0.6,0.3,2,1.1,2.6,3
		c0.1,0.4,0.5,1.9,0,3.3c-0.8,2.2-3.2,2.8-5.1,3.3C52.1,53.5,51.2,53.6,50.3,53.6L50.3,53.6z"/>
	<g>
		<path d="M52.8,43.5c1.3,0,2.4,0.6,2.5,0.6c0.5,0.3,1.8,1,2.3,2.7c0.1,0.4,0.5,1.7,0,2.9c-0.7,1.9-2.9,2.5-4.7,3
			C52,52.9,51.2,53,50.3,53c-1.1,0-2.2-0.2-3.4-0.4c-0.6-0.1-1.1-0.2-1.5-0.3c0.3-0.2,0.7-0.4,1-0.6c1.8-1.3,2.4-3.1,2.8-4.7
			c0.4-1.3,0.7-2.4,1.7-3C51.5,43.7,52.1,43.5,52.8,43.5 M52.8,42.4c-0.8,0-1.7,0.2-2.5,0.7c-2.6,1.8-1.6,5.6-4.5,7.7
			c-1.6,1.1-3.2,0.9-3.2,1.5c0,0.8,3.7,1.4,4.2,1.5c1.2,0.2,2.3,0.4,3.6,0.4c0.9,0,1.8-0.1,2.9-0.4c1.9-0.5,4.6-1.2,5.5-3.7
			c0.6-1.6,0.1-3.3,0-3.7c-0.7-2.1-2.3-3-2.9-3.3C55.6,43,54.3,42.4,52.8,42.4L52.8,42.4z"/>
	</g>
</g>
</svg>
