<?xml version="1.0" encoding="utf-8"?>
<!-- Generator: Adobe Illustrator 24.1.2, SVG Export Plug-In . SVG Version: 6.00 Build 0)  -->
<svg version="1.1" id="Capa_1" xmlns="http://www.w3.org/2000/svg" xmlns:xlink="http://www.w3.org/1999/xlink" x="0px" y="0px"
	 viewBox="0 0 96 96" style="enable-background:new 0 0 96 96;" xml:space="preserve">
<style type="text/css">
	.st0{fill:#FFFFFF;}
	.st1{fill:none;stroke:#000000;stroke-width:0.9676;stroke-miterlimit:10;}
</style>
<g>
	<g>
		<path class="st0" d="M48,78c-16.6,0-30-13.5-30-30s13.5-30,30-30s30,13.5,30,30S64.6,78,48,78z"/>
		<path d="M48,18.4c16.3,0,29.6,13.3,29.6,29.6S64.3,77.6,48,77.6S18.4,64.3,18.4,48S31.7,18.4,48,18.4 M48,17.5
			c-16.9,0-30.5,13.7-30.5,30.5S31.1,78.5,48,78.5S78.5,64.9,78.5,48S64.9,17.5,48,17.5L48,17.5z"/>
	</g>
	<g>
		<path class="st0" d="M48,70.3c-12.1,0-22-9.9-22-22s9.9-22,22-22c12.1,0,22,9.9,22,22S60.1,70.3,48,70.3z"/>
		<path d="M48,26.8c11.9,0,21.5,9.7,21.5,21.5S59.9,69.8,48,69.8s-21.5-9.7-21.5-21.5S36.1,26.8,48,26.8 M48,25.8
			c-12.4,0-22.5,10.1-22.5,22.5S35.6,70.8,48,70.8s22.5-10.1,22.5-22.5S60.4,25.8,48,25.8L48,25.8z"/>
	</g>
	<g>
		<path class="st0" d="M48,61.1c-6.7,0-12.1-5.4-12.1-12.1S41.3,36.9,48,36.9c6.7,0,12.1,5.4,12.1,12.1S54.7,61.1,48,61.1z"/>
		<path d="M48,37.4c6.4,0,11.6,5.2,11.6,11.6S54.4,60.6,48,60.6S36.4,55.4,36.4,49S41.6,37.4,48,37.4 M48,36.4
			c-6.9,0-12.6,5.6-12.6,12.6S41.1,61.6,48,61.6S60.6,56,60.6,49S54.9,36.4,48,36.4L48,36.4z"/>
	</g>
	<g>
		<path d="M48,49.5c-0.3,0-0.5-0.2-0.5-0.5s0.2-0.5,0.5-0.5c0.3,0,0.5,0.2,0.5,0.5S48.3,49.5,48,49.5z"/>
		<path d="M48,48c-0.5,0-1,0.4-1,1s0.4,1,1,1s1-0.4,1-1S48.5,48,48,48L48,48z"/>
	</g>
	<g>
		<line class="st1" x1="48.2" y1="49.3" x2="28.4" y2="29.4"/>
	</g>
	<g>
		<path class="st0" d="M26.4,31.1c-1-1-2.2-2-3.3-3c-0.9-0.8-1.8-1.6-2.7-2.4c1.5,0,4.5,0.1,4.5,0.1s0-2.9,0-3.9l5.4,5.4
			c-0.5,0.9-0.6,2.5-0.6,3.3C28.7,30.5,27.2,30.6,26.4,31.1z"/>
		<path d="M25.4,22.9l1.6,1.6l2.7,2.7c-0.3,0.8-0.4,1.9-0.5,2.8c-1,0-2,0.2-2.8,0.5c-1-0.9-2-1.9-3.1-2.8c-0.6-0.5-1.2-1-1.7-1.6
			c0.9,0,1.9,0,2.7,0.1l1,0l0-1C25.4,24.5,25.4,23.7,25.4,22.9 M24.4,20.6c0,0,0,4.6,0,4.6s-4.9-0.1-5.2-0.1c0,0,0,0,0,0
			c2.2,2.2,5,4.5,7.1,6.6C27,31,29.6,31,30.1,31c0.1,0,0.1,0,0.1,0s-0.1-3.1,0.7-3.9C28.8,24.9,26.6,22.8,24.4,20.6L24.4,20.6z"/>
	</g>
	<line class="st1" x1="24.1" y1="29.4" x2="28.4" y2="29.4"/>
	<line class="st1" x1="28.4" y1="29.7" x2="28.4" y2="25.1"/>
	<line class="st1" x1="22.1" y1="27.4" x2="26.5" y2="27.4"/>
	<line class="st1" x1="26.5" y1="27.7" x2="26.5" y2="23.1"/>
</g>
</svg>
