<?xml version="1.0" encoding="utf-8"?>
<!-- Generator: Adobe Illustrator 24.1.2, SVG Export Plug-In . SVG Version: 6.00 Build 0)  -->
<svg version="1.1" id="Capa_1" xmlns="http://www.w3.org/2000/svg" xmlns:xlink="http://www.w3.org/1999/xlink" x="0px" y="0px"
	 viewBox="0 0 96 96" style="enable-background:new 0 0 96 96;" xml:space="preserve">
<style type="text/css">
	.st0{fill:#FFFFFF;}
	.st1{fill:#FFFFFF;stroke:#000000;stroke-width:1.1877;stroke-miterlimit:10;}
</style>
<g>
	<g>
		<circle class="st0" cx="48" cy="48" r="36.88"/>
		<path d="M48,11.72c20.01,0,36.28,16.28,36.28,36.28S68.01,84.28,48,84.28S11.72,68.01,11.72,48S27.99,11.72,48,11.72 M48,10.53
			C27.3,10.53,10.53,27.3,10.53,48S27.3,85.47,48,85.47S85.47,68.7,85.47,48S68.7,10.53,48,10.53L48,10.53z"/>
	</g>
	<g>
		<path d="M69.67,59.82c-4.81,7.05-12.78,11.25-21.37,11.25c-8.59,0-16.57-4.2-21.37-11.25H69.67 M69.83,58.63H26.75
			c-0.87,0-1.41,0.97-0.92,1.69c4.83,7.19,13.08,11.93,22.47,11.93s17.64-4.74,22.47-11.93C71.24,59.6,70.7,58.63,69.83,58.63
			L69.83,58.63z"/>
	</g>
	<path class="st1" d="M70.51,44.65c0-4.42-3.58-8-8-8c-4.42,0-8,3.58-8,8c0,0.11,0.01,0.21,0.02,0.32"/>
	<path class="st1" d="M42.65,44.97c0-0.11,0.02-0.21,0.02-0.32c0-4.42-3.58-8-8-8c-4.42,0-8,3.58-8,8"/>
</g>
</svg>
