<?xml version="1.0" encoding="utf-8"?>
<!-- Generator: Adobe Illustrator 24.1.2, SVG Export Plug-In . SVG Version: 6.00 Build 0)  -->
<svg version="1.1" id="Capa_1" xmlns="http://www.w3.org/2000/svg" xmlns:xlink="http://www.w3.org/1999/xlink" x="0px" y="0px"
	 viewBox="0 0 96 96" style="enable-background:new 0 0 96 96;" xml:space="preserve">
<style type="text/css">
	.st0{fill:#FFFFFF;}
</style>
<g>
	<g>
		<path class="st0" d="M46.4,52.5l12.4-9.6l23.4,30.1c-0.4,0.2-1.2,0.3-2.4,0.3c-3.3,0-7.8-1.1-7.9-1.1L71.3,72l0,0.6
			c0,2.3-0.2,8.1-1.5,10L46.4,52.5z"/>
		<path d="M58.7,43.5l11.4,14.7l11.3,14.5c-0.4,0.1-0.9,0.1-1.6,0.1c-3.2,0-7.7-1.1-7.8-1.1l-1.2-0.3l0,1.2c0.1,3-0.3,7.2-1.1,9.1
			L47,52.6L58.7,43.5 M58.8,42.2L45.7,52.4l24,30.8c2.2-1.7,2-10.7,2-10.7s4.6,1.1,8,1.1c1.3,0,2.5-0.2,3.1-0.7
			C74.8,62.8,66.8,52.5,58.8,42.2L58.8,42.2z"/>
	</g>
	<g>
		<path class="st0" d="M26.2,83.2c-1.3-1.8-1.5-7.7-1.5-10l0-0.6l-0.6,0.1c0,0-4.6,1.1-7.9,1.1c-1.2,0-2-0.2-2.4-0.3l23.4-30.1
			l12.4,9.6L26.2,83.2z"/>
		<path d="M37.3,44.2L49,53.3L26.3,82.4c-0.8-1.9-1.2-6.2-1.1-9.1l0-1.2l-1.2,0.3c0,0-4.5,1.1-7.8,1.1c-0.7,0-1.3-0.1-1.6-0.1
			l11.3-14.5L37.3,44.2 M37.2,42.9c-8,10.3-16,20.6-24,30.8c0.6,0.5,1.8,0.7,3.1,0.7c3.4,0,8-1.1,8-1.1s-0.2,9,2,10.7l24-30.8
			L37.2,42.9L37.2,42.9z"/>
	</g>
	<g>
		<path class="st0" d="M47.5,68.6c-15.5,0-28-12.6-28-28s12.6-28,28-28s28,12.6,28,28S62.9,68.6,47.5,68.6z"/>
		<path d="M47.5,13c15.2,0,27.6,12.4,27.6,27.6S62.7,68.1,47.5,68.1S19.9,55.8,19.9,40.6S32.3,13,47.5,13 M47.5,12.1
			C31.7,12.1,19,24.8,19,40.6s12.8,28.5,28.5,28.5S76,56.3,76,40.6S63.2,12.1,47.5,12.1L47.5,12.1z"/>
	</g>
	<g>
		<path class="st0" d="M47.2,60.8c-11,0-20-9-20-20c0-11,9-20,20-20s20,9,20,20C67.2,51.8,58.3,60.8,47.2,60.8z"/>
		<path d="M47.2,21.3c10.8,0,19.5,8.8,19.5,19.5S58,60.3,47.2,60.3s-19.5-8.8-19.5-19.5S36.5,21.3,47.2,21.3 M47.2,20.3
			c-11.3,0-20.5,9.2-20.5,20.5s9.2,20.5,20.5,20.5s20.5-9.2,20.5-20.5S58.5,20.3,47.2,20.3L47.2,20.3z"/>
	</g>
	<g>
		<path class="st0" d="M56.1,53.5C56.1,53.5,56.1,53.5,56.1,53.5L48,49.3c-0.2-0.1-0.3-0.1-0.5-0.1c-0.2,0-0.4,0-0.5,0.1l-8,4.2
			c0,0-0.1,0-0.1,0c-0.1,0-0.1,0-0.1-0.1c0,0,0-0.1,0-0.1l1.5-9c0.1-0.4-0.1-0.7-0.3-1l-6.5-6.3c-0.1-0.1-0.1-0.1,0-0.2
			c0,0,0-0.1,0.1-0.1l9-1.3c0.4-0.1,0.7-0.3,0.8-0.6l4-8.1c0-0.1,0.1-0.1,0.2-0.1s0.1,0,0.2,0.1l4,8.1c0.2,0.3,0.5,0.5,0.8,0.6
			l9,1.3c0.1,0,0.1,0.1,0.1,0.1c0,0,0,0.1,0,0.2l-6.5,6.3c-0.3,0.3-0.4,0.6-0.3,1l1.5,8.9c0,0.1,0,0.1,0,0.1
			C56.2,53.5,56.2,53.5,56.1,53.5z"/>
		<path d="M47.5,27.4l3.8,7.6c0.2,0.5,0.7,0.8,1.2,0.9l8.4,1.2l-6.1,5.9c-0.4,0.4-0.5,0.9-0.4,1.4l1.4,8.4l-7.5-4
			c-0.2-0.1-0.5-0.2-0.7-0.2c-0.3,0-0.5,0.1-0.7,0.2l-7.5,4l1.4-8.4c0.1-0.5-0.1-1-0.4-1.4l-6.1-5.9l8.4-1.2
			c0.5-0.1,0.9-0.4,1.2-0.9L47.5,27.4 M47.5,26.2c-0.2,0-0.5,0.1-0.6,0.4l-4,8.1c-0.1,0.2-0.3,0.3-0.5,0.4l-9,1.3
			c-0.5,0.1-0.7,0.7-0.4,1.1l6.5,6.3c0.2,0.1,0.2,0.4,0.2,0.6l-1.5,8.9c-0.1,0.4,0.3,0.8,0.6,0.8c0.1,0,0.2,0,0.3-0.1l8-4.2
			c0.1,0,0.2-0.1,0.3-0.1s0.2,0,0.3,0.1l8,4.2C55.9,54,56,54,56.1,54c0.4,0,0.7-0.3,0.6-0.8l-1.5-8.9c0-0.2,0-0.4,0.2-0.6l6.5-6.3
			c0.4-0.4,0.2-1-0.4-1.1l-9-1.3c-0.2,0-0.4-0.2-0.5-0.4l-4-8.1C47.9,26.3,47.7,26.2,47.5,26.2L47.5,26.2z"/>
	</g>
</g>
</svg>
